<svg width="484" height="359" viewBox="0 0 484 359" fill="none" xmlns="http://www.w3.org/2000/svg">
<rect width="484" height="359" fill="#1E1E1E"/>
<g clip-path="url(#clip0_0_1)">
<rect width="484" height="359" fill="white"/>
<rect width="484" height="359" fill="#C47316"/>
<path d="M88.1 137.5L88.2 137.6H124.2V139.2C117.5 139.2 115.2 142.5 115.2 151.1V157.2V176.9C115.2 184 116.8 215.1 84.1 215.1C64.4 215.1 60.2 203.9 61.1 194.7C62.6 179.7 82.9 181.9 84.5 192.8C74.2 192.8 73.1 213.5 85.7 213.4C99.2 213.3 97.1 176.8 97.1 176.8V157.1V151C97.1 142.4 95.5 139.1 88.1 139.1V137.5ZM145.447 142.5V142.6C145.547 142.6 145.647 142.6 145.747 142.6C146.747 142.6 148.147 143.2 148.847 143.9C151.647 146.9 152.547 150.8 153.947 154.9L153.347 155.5C149.247 153.8 145.147 152.3 142.647 149.6C142.047 148.9 141.547 147.6 141.547 146.7C141.547 145.7 142.147 144.3 142.847 143.6C143.447 143 144.647 142.5 145.447 142.5ZM145.247 165.1L147.147 165V190.5V194V197.5C147.147 205.5 149.047 213.5 155.447 213.5C161.847 213.5 164.447 205.4 164.447 196.1V194V188.9C164.447 180.3 162.647 175.7 157.047 175.3V173.7C170.947 173.7 180.847 164.9 180.847 164.9H182.447V189.7V198.9C182.447 215.7 190.147 210.4 190.147 210.4V212C187.247 214.7 170.847 219.9 165.447 209.8C162.947 213.2 157.947 215.9 149.647 215.8C137.847 215.6 128.847 209.6 128.847 197.5V194.1V190.6V189.1C128.847 180.5 127.047 175.9 121.447 175.5V173.9C135.347 173.9 145.247 165.1 145.247 165.1ZM217.455 137.5L219.055 137.6V165.1V195.4V201.5C219.055 210.1 221.355 213.4 228.055 213.4V215H192.055V213.4C199.455 213.4 201.055 210.1 201.055 201.5V195.4V161.5C201.055 152.9 199.255 148.3 193.655 147.9V146.3C207.555 146.3 217.455 137.5 217.455 137.5ZM252.631 165C273.631 165 277.331 172 279.031 183.2L279.231 184.6L280.931 199.9C283.331 215.1 290.331 210.5 290.331 210.5V211.7C289.131 214.9 269.831 220.4 264.531 209.5C264.431 209.6 259.331 215.9 248.131 215.9C239.231 215.9 230.431 212.5 230.431 202.9C230.431 181.6 262.131 194.3 260.531 180.4L260.431 179.2C259.731 174.9 259.431 166.8 252.531 166.8C246.431 166.8 244.831 169.4 244.831 171.7C244.831 174 245.931 176.1 250.531 176.1C253.231 186 238.131 190.1 235.531 180.6C233.531 173.1 239.231 165 252.631 165ZM261.231 185.4V185.3C259.331 189.9 247.631 190.6 247.631 201.1C247.631 214 264.531 213.8 263.431 204.8L261.231 185.4ZM311.558 137.5H313.058V169.5C316.358 166.9 320.358 165.3 324.758 165C325.158 165 325.558 165 325.958 165C326.358 165 326.758 165 327.158 165C338.958 165.6 348.558 176 349.358 189C350.158 203 340.558 215 327.958 215.8C321.258 216.2 315.058 213.4 310.558 208.6L296.758 215H295.158V161.5C295.158 152.9 293.358 148.3 287.758 147.9V146.3C301.658 146.3 311.558 137.5 311.558 137.5ZM318.158 169C317.858 169 317.558 169 317.258 169.1C312.158 170.5 312.158 181.3 315.458 193.7C318.758 206.1 324.258 215.4 329.358 214C334.458 212.6 334.458 201.8 331.158 189.4C328.058 177.8 323.058 168.9 318.158 169ZM376.362 165C397.362 165 401.062 172 402.762 183.2L402.962 184.6L404.662 199.9C407.062 215.1 414.062 210.5 414.062 210.5V211.7C412.862 214.9 393.562 220.4 388.262 209.5C388.162 209.6 383.062 215.9 371.862 215.9C362.962 215.9 354.162 212.5 354.162 202.9C354.162 181.6 385.862 194.3 384.262 180.4L384.162 179.2C383.462 174.9 383.162 166.8 376.262 166.8C370.162 166.8 368.562 169.4 368.562 171.7C368.562 174 369.662 176.1 374.262 176.1C376.962 186 361.862 190.1 359.262 180.6C357.262 173.1 362.962 165 376.362 165ZM384.962 185.4V185.3C383.062 189.9 371.362 190.6 371.362 201.1C371.362 214 388.262 213.8 387.162 204.8L384.962 185.4Z" fill="white"/>
</g>
<defs>
<clipPath id="clip0_0_1">
<rect width="484" height="359" fill="white"/>
</clipPath>
</defs>
</svg>
